<svg xmlns="http://www.w3.org/2000/svg" viewBox="0 0 183.325 67.178"><defs><style>.cls-1,.cls-2{fill:#d9ac58;}.cls-2{font-size:30.628px;font-family:AlegreyaSC-Regular, Alegreya SC;}.cls-3{letter-spacing:-0.02em;}</style></defs><title>Asset 6logoLong</title><g id="Layer_2" data-name="Layer 2"><g id="Layer_1-2" data-name="Layer 1"><path class="cls-1" d="M7.656,44.193a5.834,5.834,0,0,1-1.789-3.051c-.706-1.964-.682-3.444-1.789-5.156-.423-.654-.647-.78-.778-.74-.248.074-.244.77-.238,1.259a10.26,10.26,0,0,0,.374,2.552c.616,2.41.454,2.1.647,2.655A9.786,9.786,0,0,0,6.3,45.456a9.819,9.819,0,0,0,4.833,2.518c2.572.647,3.322-.038,4.22.715,1.469,1.231.838,4.215.136,7.351-1.184,5.3-1.829,8.18-4.363,9.757-1.4.872-3.634.952-8.092,1.23-.755.047.726.1.732.115.037.123,13.129-.086,13.3-.349.7-1.09,3.944-12.932,3.631-17.972-.088-1.431-1.042-4.055-3.224-4.839A12.766,12.766,0,0,1,13.9,41.975c-1.584-1.292-2.14-2.465-2.719-2.266-.417.145-.6.918-.517,1.489.138,1.026,1.137,1.709,2.33,2.525,1.059.724,1.594.871,1.554,1.1-.077.435-2.092.463-3.5.324A6.191,6.191,0,0,1,7.656,44.193Z"/><path class="cls-1" d="M30.205,43.9a5.834,5.834,0,0,0,1.789-3.051c.706-1.964.682-3.444,1.789-5.156.423-.654.647-.78.778-.74.248.074.244.77.238,1.259a10.26,10.26,0,0,1-.374,2.552c-.616,2.41-.454,2.1-.647,2.655a9.786,9.786,0,0,1-2.212,3.744,9.819,9.819,0,0,1-4.833,2.518c-2.572.647-3.322-.038-4.22.715-1.469,1.231-.838,4.215-.136,7.351,1.184,5.3,1.829,8.18,4.363,9.757,1.4.872,3.629,1.065,8.092,1.23,2.752.1,1.7.119,1.7.1,0-.056-20.682.388-20.614-.05.226-1.451.944-13.216,1.257-18.256.088-1.431,1.042-4.055,3.224-4.839a12.766,12.766,0,0,0,3.561-2.007c1.584-1.292,2.14-2.465,2.718-2.266.418.144.595.918.518,1.489-.138,1.026-1.137,1.709-2.33,2.525-1.059.724-1.594.871-1.554,1.1.077.435,2.091.463,3.5.324A6.191,6.191,0,0,0,30.205,43.9Z"/><path class="cls-1" d="M6.328,34.39c1.666.726,3.195.167,4.545-1.046a4.4,4.4,0,0,0,1.853-3.39,3.557,3.557,0,0,0-1.953-3.012A2.513,2.513,0,0,0,8,27.157a2.346,2.346,0,0,0-1.2,2.181,1.889,1.889,0,0,0,1.224,1.633,1.521,1.521,0,0,0,2.087-.957c.046-.135-.4-.377-.5-.263-.734.846-1.01.921-1.647.39A1.249,1.249,0,0,1,7.9,28.114c1.211-1.341,2.978-1.022,3.868.7a2.468,2.468,0,0,1,.022,2.448,4.907,4.907,0,0,1-3.221,2.66,3.519,3.519,0,0,1-3.405-1.35c-1.521-1.7-1.624-4.95,1.23-6.973a5.722,5.722,0,0,1,3.774-1.433c4.122.386,6.04,5.272,3.493,8.778a8.456,8.456,0,0,1-3.871,3.116,5.825,5.825,0,0,1-5.968-.954A9.094,9.094,0,0,1,.071,29.243a7.251,7.251,0,0,1,2.02-5.876A11.433,11.433,0,0,1,9.49,19.6c2.761-.441,5.53-.816,8.288-1.278a9.4,9.4,0,0,0,5.935-3.242c1.759-2.128,3.025-4.463,2.684-7.224-.433-3.508-4.029-5.851-7.349-5.471a3.749,3.749,0,0,0-1.838.761c-1.354,1.106-2.593,2.378-2.662,4.232a4.02,4.02,0,0,0,2.113,3.89,3.465,3.465,0,0,0,3.84-.325,2.877,2.877,0,0,0,.967-3.459A2.618,2.618,0,0,0,18.44,6.51a1.85,1.85,0,0,0-1.176,1.527c0,.151.147.292.226.438.121-.1.29-.177.357-.3.585-1.1.869-1.279,1.859-1.133A1.465,1.465,0,0,1,21.058,8.4a2.272,2.272,0,0,1-1.252,2.266c-2.082,1.011-3.942-.1-4.543-2.342-.643-2.4,2.168-4.512,4.576-3.861a5.422,5.422,0,0,1,3.506,2.832,3.846,3.846,0,0,1-.276,3.5c-1.312,2.9-3.955,3.729-6.635,3.205-3-.586-4.621-2.912-4.684-6.2-.073-3.773,2.318-6.007,5.324-7.161a7.719,7.719,0,0,1,9.388,2.522,10.37,10.37,0,0,1,1.7,8.429,39.592,39.592,0,0,1-3.347,8.909A10.664,10.664,0,0,0,23.4,25.5a8.081,8.081,0,0,0,3.079,5.991,7.345,7.345,0,0,0,3.375,1.7,6.369,6.369,0,0,0,7.161-6.108,5.438,5.438,0,0,0-4.522-5A3.689,3.689,0,0,0,28.626,24.9a2.971,2.971,0,0,0,2.467,3.659,2.39,2.39,0,0,0,2.219-.915,1.541,1.541,0,0,0-.126-2.067,1.451,1.451,0,0,0-1.911-.3c-.149.081-.228.305-.339.463.18.045.392.177.532.118.5-.211.975-.29,1.259.19.17.288.331.817.184,1.017a2.008,2.008,0,0,1-3.622-.7,2.775,2.775,0,0,1,1.21-3.133,3.283,3.283,0,0,1,3.989.38c.086.076.164.161.247.242,1.586,1.556,1.839,2.668.5,4.7A3.958,3.958,0,0,1,30,30.166a5.909,5.909,0,0,1-3.383-4.3c-.628-3.4,2.9-6.666,5.989-6.511a7.2,7.2,0,0,1,6.282,9.985A10.181,10.181,0,0,1,35.48,34.07a7.049,7.049,0,0,1-5.359,1.379,12.146,12.146,0,0,1-8.873-5.431,21.868,21.868,0,0,0-5.055-5.81,10.245,10.245,0,0,0-5.318-2.38c-3.058-.215-7.07,1.832-8.228,4.883a5.327,5.327,0,0,0,1.03,5.518,8.163,8.163,0,0,0,.728.737A8,8,0,0,0,6.328,34.39Z"/><text class="cls-2" transform="translate(45.35 45.491)"><tspan class="cls-3">Y</tspan><tspan x="15.865" y="0">ggdrasil</tspan></text></g></g></svg>