<svg xmlns="http://www.w3.org/2000/svg" viewBox="0 0 266.932 150.228"><defs><style>.cls-1,.cls-2{fill:#d9ac58;}.cls-2{font-size:36px;font-family:AlegreyaSC-Regular, Alegreya SC;}.cls-3{letter-spacing:-0.02em;}.cls-4{letter-spacing:-0.01em;}.cls-5{letter-spacing:-0.012em;}</style></defs><g id="Layer_2" data-name="Layer 2"><g id="Layer_1-2" data-name="Layer 1"><path class="cls-1" d="M16.322,94.223c-2.025-1.532-2.749-3.546-3.814-6.506C11,83.531,11.054,80.375,8.7,76.725c-.9-1.394-1.38-1.663-1.659-1.579-.528.159-.521,1.642-.508,2.685a21.962,21.962,0,0,0,.8,5.442c1.313,5.137.968,4.469,1.379,5.66a20.868,20.868,0,0,0,4.717,7.982,20.933,20.933,0,0,0,10.3,5.369c5.485,1.38,7.083-.081,9,1.524,3.132,2.626,1.786,8.986.29,15.674-2.524,11.29-3.9,17.44-9.3,20.8-2.989,1.86-7.748,2.03-17.252,2.623-1.609.1,1.547.2,1.56.245.081.263,27.992-.183,28.352-.743,1.493-2.325,8.407-27.573,7.741-38.319-.189-3.05-2.223-8.644-6.875-10.317a27.209,27.209,0,0,1-7.591-4.278c-3.378-2.756-4.564-5.256-5.8-4.831-.891.307-1.268,1.957-1.1,3.175.3,2.186,2.425,3.642,4.969,5.382,2.258,1.545,3.4,1.857,3.312,2.347-.162.927-4.458.985-7.453.69C20.509,95.954,18.326,95.738,16.322,94.223Z"/><path class="cls-1" d="M64.4,93.6c2.026-1.532,2.749-3.545,3.814-6.5,1.5-4.187,1.454-7.343,3.813-10.993.9-1.394,1.38-1.663,1.659-1.579.529.16.521,1.642.508,2.685a21.962,21.962,0,0,1-.8,5.442c-1.313,5.138-.968,4.47-1.379,5.66A20.876,20.876,0,0,1,67.3,96.292a20.931,20.931,0,0,1-10.3,5.37c-5.484,1.379-7.083-.082-9,1.524-3.132,2.625-1.786,8.985-.29,15.673,2.524,11.29,3.9,17.441,9.3,20.8,2.989,1.859,7.736,2.272,17.252,2.622,5.867.216,3.617.255,3.618.213,0-.119-44.1.827-43.951-.106.482-3.094,2.014-28.177,2.68-38.923.189-3.051,2.223-8.645,6.876-10.317a27.206,27.206,0,0,0,7.59-4.279c3.379-2.755,4.564-5.255,5.8-4.83.891.307,1.269,1.956,1.1,3.174-.3,2.186-2.425,3.643-4.968,5.383-2.259,1.544-3.4,1.857-3.313,2.346.163.927,4.459.986,7.453.69C60.213,95.331,62.4,95.116,64.4,93.6Z"/><path class="cls-1" d="M13.493,73.323c3.551,1.547,6.81.354,9.689-2.232,2.168-1.947,4.056-4.135,3.951-7.227-.1-2.986-1.793-5.013-4.165-6.422a5.355,5.355,0,0,0-5.9.458,5,5,0,0,0-2.553,4.65,4.018,4.018,0,0,0,2.611,3.481,3.242,3.242,0,0,0,4.449-2.04c.1-.287-.86-.8-1.071-.561-1.565,1.806-2.153,1.966-3.511.832-1.524-1.271-1.576-2.747-.154-4.321,2.581-2.858,6.348-2.18,8.248,1.5a5.262,5.262,0,0,1,.045,5.219c-1.54,2.812-3.766,5.013-6.868,5.672-2.952.628-5.39-.8-7.258-2.879C7.76,65.832,7.542,58.9,13.626,54.586c2.446-1.734,5.024-3.339,8.047-3.056,8.787.823,12.878,11.24,7.447,18.716a18.013,18.013,0,0,1-8.254,6.642A12.414,12.414,0,0,1,8.143,74.854C4.055,71.642.962,67.745.151,62.348c-.718-4.779,1.189-8.814,4.308-12.529,4.2-5.006,9.738-7.059,15.774-8.023,5.888-.939,11.79-1.739,17.672-2.723A20.038,20.038,0,0,0,50.557,32.16c3.752-4.536,6.451-9.516,5.724-15.4C55.356,9.279,47.69,4.284,40.612,5.094a7.984,7.984,0,0,0-3.918,1.623c-2.889,2.357-5.529,5.068-5.676,9.021a8.571,8.571,0,0,0,4.505,8.3,7.39,7.39,0,0,0,8.186-.692,6.134,6.134,0,0,0,2.061-7.375c-.932-1.908-4.086-2.927-6.455-2.086a3.947,3.947,0,0,0-2.507,3.255c.005.323.313.623.482.934.259-.213.618-.378.761-.647C39.3,15.08,39.9,14.7,42.016,15.005a3.124,3.124,0,0,1,2.881,2.9,4.844,4.844,0,0,1-2.669,4.831c-4.439,2.156-8.405-.219-9.686-4.994-1.371-5.11,4.621-9.619,9.757-8.23a11.55,11.55,0,0,1,7.473,6.037c1.3,2.495.519,5.008-.588,7.456-2.8,6.187-8.431,7.95-14.146,6.833-6.388-1.249-9.852-6.207-9.987-13.222C24.9,8.572,29.994,3.81,36.4,1.35,44.168-1.63,51.718.393,56.418,6.726,60.286,11.938,61.3,18.07,60.044,24.7c-1.269,6.692-4.311,12.8-7.137,18.995-1.551,3.4-3.243,6.791-3.025,10.67a17.231,17.231,0,0,0,6.564,12.775,15.667,15.667,0,0,0,7.2,3.626C71.124,72.135,79,65.438,78.911,57.741c-.058-5.031-4.738-10.21-9.642-10.669a7.867,7.867,0,0,0-8.237,6c-.717,3.924,1.488,7.2,5.26,7.8a5.1,5.1,0,0,0,4.732-1.952,3.286,3.286,0,0,0-.269-4.407,3.094,3.094,0,0,0-4.075-.646c-.318.173-.485.651-.722.987.383.095.836.379,1.135.251,1.057-.448,2.077-.617,2.682.406.363.614.707,1.741.393,2.169A4.281,4.281,0,0,1,62.445,56.2a5.918,5.918,0,0,1,2.581-6.68,7,7,0,0,1,8.5.81c.184.163.351.344.527.516,3.382,3.319,3.922,5.69,1.076,10.026-2.728,4.155-7.216,5.466-11.172,3.445-3.743-1.912-6.412-4.818-7.215-9.167C55.408,47.9,62.922,40.938,69.515,41.268c10.647.532,17.267,11.07,13.394,21.289A21.686,21.686,0,0,1,75.646,72.64,15.027,15.027,0,0,1,64.22,75.579C56.14,74.47,49.791,70.711,45.3,64c-3.064-4.581-6.252-9.089-10.776-12.387-3.389-2.47-6.892-4.762-11.339-5.075-6.52-.457-15.073,3.906-17.543,10.411-1.735,4.57-.479,8.326,2.2,11.766a17.712,17.712,0,0,0,1.553,1.572A17.058,17.058,0,0,0,13.493,73.323Z"/><text class="cls-2" transform="translate(104.754 53.28)">The<tspan class="cls-3" x="0" y="43.2">Y</tspan><tspan x="18.648" y="43.2">ggdrasil</tspan><tspan x="0" y="86.4">P</tspan><tspan class="cls-4" x="19.836" y="86.4">r</tspan><tspan x="38.52" y="86.4">o</tspan><tspan class="cls-5" x="59.579" y="86.4">j</tspan><tspan class="cls-3" x="69.659" y="86.4">e</tspan><tspan x="87.228" y="86.4">ct</tspan></text></g></g></svg>